<?xml version="1.0" encoding="UTF-8" standalone="no"?>
<!DOCTYPE svg PUBLIC "-//W3C//DTD SVG 20010904//EN"
              "http://www.w3.org/TR/2001/REC-SVG-20010904/DTD/svg10.dtd">

<svg xmlns="http://www.w3.org/2000/svg"
     width="72.506mm" height="103.467mm"
     viewBox="0 0 274 391">
  <path id="Selection #1"
        fill="none" stroke="black" stroke-width="1"
        d="M 67.00,45.00
           C 79.75,40.59 84.61,40.07 98.00,40.00
             109.22,39.94 105.91,37.34 114.01,33.52
             114.01,33.52 128.00,27.64 128.00,27.64
             142.52,19.22 148.71,1.14 168.00,1.08
             184.72,1.03 190.93,13.26 195.83,27.00
             198.29,33.88 205.46,40.30 195.00,44.00
             195.00,44.00 201.26,53.99 201.26,53.99
             201.26,53.99 198.74,61.17 198.74,61.17
             198.74,61.17 198.74,68.00 198.74,68.00
             198.74,68.00 195.00,82.00 195.00,82.00
             195.00,82.00 183.00,78.00 183.00,78.00
             186.28,83.65 191.85,89.26 192.56,96.00
             192.56,96.00 192.56,102.00 192.56,102.00
             192.35,104.71 193.16,107.08 192.56,109.83
             192.56,109.83 191.04,116.04 191.04,116.04
             189.61,123.51 190.22,126.80 187.65,135.00
             186.73,137.94 184.19,142.87 185.81,145.70
             185.81,145.70 199.00,157.04 199.00,157.04
             199.00,157.04 234.79,192.00 234.79,192.00
             238.15,195.87 240.65,200.07 243.25,204.42
             243.25,204.42 248.15,211.00 248.15,211.00
             250.15,214.33 252.27,224.12 251.85,228.00
             251.11,235.00 244.98,239.53 238.99,241.86
             237.21,242.55 233.62,244.62 232.13,242.38
             229.68,238.71 237.41,234.54 235.57,228.00
             234.07,222.71 230.22,218.83 225.00,217.43
             223.13,216.65 220.36,215.99 218.91,217.43
             216.97,219.63 218.86,226.98 218.91,230.00
             209.45,226.79 209.21,209.58 203.35,202.29
             199.40,197.37 187.08,189.31 181.00,187.09
             173.22,184.25 165.97,184.20 162.00,176.00
             156.90,178.86 158.49,181.10 156.02,185.72
             154.89,187.82 152.53,190.52 152.57,192.99
             152.59,194.64 153.22,195.51 154.25,196.72
             154.25,196.72 170.71,213.00 170.71,213.00
             170.71,213.00 194.89,244.99 194.89,244.99
             200.68,252.28 206.44,254.67 210.50,264.96
             212.89,271.02 213.92,282.40 214.62,289.00
             214.62,289.00 216.39,298.00 216.39,298.00
             216.39,298.00 219.71,319.00 219.71,319.00
             220.87,328.37 220.64,338.03 224.00,347.00
             224.00,347.00 236.00,346.00 236.00,346.00
             236.00,346.00 235.00,349.09 235.00,349.09
             235.00,349.09 244.00,349.09 244.00,349.09
             244.00,349.09 257.00,350.91 257.00,350.91
             257.00,350.91 271.00,347.00 271.00,347.00
             271.00,347.00 272.00,356.00 272.00,356.00
             269.50,359.38 268.01,370.77 263.15,375.19
             261.71,376.50 258.95,376.71 257.00,377.47
             253.38,378.89 247.67,381.82 243.72,382.52
             240.37,383.04 237.10,381.25 232.00,382.52
             226.33,384.00 221.20,389.34 212.00,389.71
             210.12,390.02 207.84,389.92 206.00,389.71
             189.72,385.97 194.79,363.43 189.69,352.00
             184.17,339.64 176.63,334.99 173.91,326.00
             172.19,320.29 171.04,303.34 171.00,297.00
             170.97,291.96 170.34,281.23 167.91,277.00
             164.65,271.33 146.37,260.11 140.00,257.00
             140.00,269.46 139.51,283.18 132.38,293.95
             129.06,298.96 122.71,302.24 118.00,305.96
             118.00,305.96 83.00,331.85 83.00,331.85
             83.00,331.85 65.00,344.63 65.00,344.63
             63.06,346.07 58.85,349.04 57.74,351.05
             55.85,354.48 60.10,356.28 62.42,357.88
             62.42,357.88 84.63,370.41 84.63,370.41
             87.68,373.28 92.13,379.85 86.85,382.81
             82.93,385.01 79.70,381.77 75.72,382.05
             71.80,382.33 64.84,385.43 55.00,383.33
             41.32,380.41 39.84,374.29 25.00,371.62
             15.07,369.82 -0.08,369.70 1.11,355.00
             1.62,348.65 5.92,341.38 11.01,337.63
             11.01,337.63 20.00,332.25 20.00,332.25
             20.00,332.25 33.00,322.54 33.00,322.54
             48.42,309.82 51.26,294.29 61.37,284.38
             68.30,277.59 84.63,273.24 94.00,270.00
             85.80,253.99 83.15,228.51 80.86,222.00
             79.10,217.03 69.35,209.45 68.11,198.91
             66.49,185.11 72.82,180.33 72.92,172.00
             72.92,172.00 70.11,154.00 70.11,154.00
             69.60,147.74 72.51,134.86 75.00,129.00
             71.67,130.11 65.86,133.04 64.57,136.46
             63.38,138.97 65.18,142.15 64.57,146.00
             64.57,146.00 60.73,160.00 60.73,160.00
             53.57,176.34 42.05,177.96 42.83,192.00
             43.16,198.17 48.63,206.15 50.36,212.00
             51.86,217.10 50.81,222.18 49.00,227.00
             49.00,227.00 47.00,227.00 47.00,227.00
             44.98,220.10 45.09,217.63 39.00,213.00
             38.08,216.14 34.87,221.65 35.14,224.00
             36.28,233.97 48.05,230.47 52.00,240.22
             52.00,240.22 35.00,240.22 35.00,240.22
             20.37,238.25 4.05,225.08 5.32,209.00
             5.32,209.00 10.92,181.00 10.92,181.00
             10.92,181.00 16.42,145.00 16.42,145.00
             16.42,145.00 24.71,124.00 24.71,124.00
             25.55,120.39 24.14,119.02 24.71,116.00
             24.71,116.00 28.45,108.00 28.45,108.00
             28.45,108.00 31.69,98.00 31.69,98.00
             31.69,98.00 40.31,80.00 40.31,80.00
             40.31,80.00 47.22,68.00 47.22,68.00
             49.22,63.69 48.32,62.23 52.19,58.29
             56.13,54.27 65.60,50.00 67.00,45.00 Z" />
</svg>
